<svg width="34" height="38" viewBox="0 0 34 38" fill="none" xmlns="http://www.w3.org/2000/svg">
<path d="M9.39437 34.0689H6.03748C3.50049 34.0689 1.44385 32.0122 1.44385 29.4752V5.09363C1.44385 2.55664 3.50049 0.5 6.03748 0.5H28.6523C31.1893 0.5 33.2459 2.55664 33.2459 5.09363V29.4752C33.2459 32.0122 31.1893 34.0689 28.6523 34.0689H25.2954" stroke="#222222" stroke-linecap="round" stroke-linejoin="round"/>
<path d="M20.6541 9.1195L26.1502 12.832C27.0468 13.4377 27.2992 14.6467 26.7196 15.5605L16.4392 31.7691L9.32435 34.1979L7.87026 26.8218L17.8066 9.76989C18.389 8.77035 19.6955 8.47196 20.6541 9.1195Z" fill="#3399FF"/>
<path d="M16.2824 31.5976C14.5698 28.9095 11.512 26.9928 8.00897 26.9928" stroke="white" stroke-linecap="round" stroke-linejoin="round"/>
<path d="M14.5181 21.169L19.9951 12.5117" stroke="white"/>
</svg>
