<svg width="35" height="37" viewBox="0 0 35 37" fill="none" xmlns="http://www.w3.org/2000/svg">
<path d="M17.3759 31.6841H4.65515C2.44601 31.6841 0.655151 29.8933 0.655151 27.6841V5.19336C0.655151 2.98422 2.44601 1.19336 4.65515 1.19336H25.1788C27.3879 1.19336 29.1788 2.98422 29.1788 5.19336V19.2255" stroke="black" stroke-linecap="round"/>
<path d="M23.3067 34.0472C28.0309 34.0472 31.8606 30.2175 31.8606 25.4934C31.8606 20.7692 28.0309 16.9395 23.3067 16.9395C18.5825 16.9395 14.7528 20.7692 14.7528 25.4934C14.7528 30.2175 18.5825 34.0472 23.3067 34.0472Z" fill="#3399FF"/>
<path d="M33.6552 35.6934L29.2943 31.4844" stroke="#3399FF" stroke-width="2" stroke-linecap="round" stroke-linejoin="round"/>
<path d="M7.21277 9.88086H15.7371" stroke="black"/>
<path d="M19.3212 24.5234H27.4879" stroke="white"/>
<path d="M19.3212 28.0312H22.8212" stroke="white"/>
</svg>
