<svg width="232" height="233" viewBox="0 0 232 233" fill="none" xmlns="http://www.w3.org/2000/svg">
<path d="M75.6025 125.577L61.041 140.948L46.8838 185.846L154.073 189.891V185.846L144.77 167.24L141.939 129.622L114.029 125.577H75.6025Z" fill="white"/>
<ellipse cx="90.7479" cy="219.907" rx="68.5593" ry="12.6149" fill="#F3F3F3"/>
<circle cx="73.2775" cy="52.7858" r="19.2451" transform="rotate(-20.4187 73.2775 52.7858)" fill="white" stroke="#666666"/>
<path d="M75.5845 52.886L79.4649 61.893L76.7225 61.893" stroke="#666666" stroke-width="2" stroke-linecap="round"/>
<path d="M41.7997 122.961L50.9121 100.91L57.4425 77.3995L90.4213 75.7672L108.441 107.62L128.134 121.231" stroke="#666666" stroke-linecap="round"/>
<path d="M74.2011 152.264L71.9688 172.993L74.2011 214.421" stroke="#666666" stroke-linecap="round"/>
<path d="M86.2675 147.876L93.3622 173.124L90.9618 212.777" stroke="#666666" stroke-linecap="round"/>
<path d="M58.0956 83.2773L71.1732 141.691C72.0858 145.767 75.9769 148.458 80.1127 147.873V147.873C83.8752 147.341 86.7463 144.239 86.9862 140.446L90.7479 80.9919" stroke="#666666" stroke-linecap="round"/>
<path d="M125.621 125.315C124.941 126.747 123.965 127.847 122.961 128.477C121.951 129.111 120.981 129.236 120.231 128.88C119.481 128.524 118.965 127.692 118.819 126.509C118.673 125.333 118.909 123.881 119.589 122.449C120.269 121.017 121.246 119.917 122.249 119.287C123.259 118.653 124.23 118.528 124.979 118.884C125.729 119.24 126.245 120.072 126.392 121.255C126.537 122.431 126.302 123.883 125.621 125.315Z" stroke="#666666"/>
<path d="M94.6617 210.872C96.2464 210.816 97.6719 211.176 98.6936 211.777C99.7213 212.382 100.279 213.186 100.308 214.015C100.337 214.845 99.837 215.686 98.854 216.36C97.8769 217.031 96.48 217.491 94.8954 217.546C93.3107 217.602 91.8852 217.241 90.8635 216.64C89.8358 216.036 89.2778 215.232 89.2487 214.402C89.2197 213.573 89.7202 212.732 90.7031 212.057C91.6802 211.386 93.0771 210.927 94.6617 210.872Z" fill="#FF9068" stroke="#666666"/>
<path d="M40.4833 154.482L41.8 130.1L42.9518 105.607C66.6488 129.304 109.106 120.089 127.372 112.519V157.938C102.096 172.946 58.9143 161.888 40.4833 154.482Z" fill="white" stroke="#222222" stroke-linecap="round"/>
<path d="M44.3237 127.116C44.0888 128.489 43.5248 129.648 42.8293 130.416C42.1291 131.189 41.3512 131.514 40.6539 131.394C39.9565 131.275 39.3309 130.71 38.9275 129.748C38.5268 128.793 38.3804 127.512 38.6153 126.139C38.8503 124.766 39.4142 123.607 40.1097 122.839C40.81 122.066 41.5879 121.741 42.2852 121.861C42.9825 121.98 43.6081 122.545 44.0116 123.507C44.4123 124.462 44.5587 125.743 44.3237 127.116Z" fill="white" stroke="#666666"/>
<path d="M130.226 127.116C129.991 128.489 129.427 129.648 128.732 130.416C128.032 131.189 127.254 131.514 126.557 131.394C125.859 131.275 125.234 130.71 124.83 129.748C124.429 128.793 124.283 127.512 124.518 126.139C124.753 124.766 125.317 123.607 126.012 122.839C126.713 122.066 127.491 121.741 128.188 121.861C128.885 121.98 129.511 122.545 129.914 123.507C130.315 124.462 130.461 125.743 130.226 127.116Z" fill="white" stroke="#666666"/>
<path d="M68.4883 211.294C70.0729 211.238 71.4984 211.599 72.5201 212.2C73.5479 212.804 74.1059 213.608 74.1349 214.438C74.164 215.267 73.6635 216.108 72.6806 216.783C71.7034 217.454 70.3066 217.913 68.7219 217.968C67.1373 218.024 65.7118 217.664 64.6901 217.063C63.6623 216.458 63.1043 215.654 63.0753 214.825C63.0462 213.995 63.5467 213.154 64.5296 212.479C65.5068 211.808 66.9036 211.349 68.4883 211.294Z" fill="#FF9068" stroke="#666666"/>
<g opacity="0.5">
<path d="M163.221 78.9144C165.278 78.0043 170.367 76.564 174.26 78.0835C179.127 79.9828 179.365 67.5186 171.649 69.774C165.476 71.5784 162.588 75.5906 161.915 77.3713C162.588 73.8101 165.476 66.5927 171.649 66.2128C179.365 65.738 168.325 55.4105 164.527 61.5833C161.488 66.5215 160.965 72.0294 161.084 74.1662C160.847 68.033 158.995 55.9091 153.487 56.4789C146.602 57.1911 150.638 64.6696 155.386 69.774C159.185 73.8575 159.264 75.828 158.829 76.3029C158.195 74.6014 156.098 70.9136 152.775 69.774C148.62 68.3495 143.753 72.8604 148.62 75.1158C153.487 77.3713 154.318 75.1158 156.573 77.3713" stroke="#666666" stroke-linecap="round"/>
<path d="M188.984 1.28564V91.7267H183.141V6.29467" stroke="#666666" stroke-linecap="round"/>
<path d="M186.064 41.6411V49.5947" stroke="#666666" stroke-linecap="round"/>
<path d="M206.096 39.2266L199.976 47.9365" stroke="#666666" stroke-linecap="round"/>
<path d="M215.041 29.3394L194.797 61.1188" stroke="#666666" stroke-linecap="round"/>
<path d="M211.04 42.0513L203.036 54.2923" stroke="#666666" stroke-linecap="round"/>
<path d="M143.502 117.734H230.946" stroke="#666666" stroke-linecap="round"/>
<path d="M143.502 127.734H230.946" stroke="#666666" stroke-linecap="round"/>
<path d="M143.502 137.734H230.946" stroke="#666666" stroke-linecap="round"/>
<path d="M143.502 147.734H230.946" stroke="#666666" stroke-linecap="round"/>
<path d="M143.502 157.734H230.946" stroke="#666666" stroke-linecap="round"/>
<path d="M160.817 119.315V126.196" stroke="#666666" stroke-linecap="round"/>
<path d="M190.817 119.315V126.196" stroke="#666666" stroke-linecap="round"/>
<path d="M220.817 119.315V126.196" stroke="#666666" stroke-linecap="round"/>
<path d="M146.817 129.315V136.196" stroke="#666666" stroke-linecap="round"/>
<path d="M176.817 129.315V136.196" stroke="#666666" stroke-linecap="round"/>
<path d="M206.817 129.315V136.196" stroke="#666666" stroke-linecap="round"/>
<path d="M160.817 139.315V146.196" stroke="#666666" stroke-linecap="round"/>
<path d="M190.817 139.315V146.196" stroke="#666666" stroke-linecap="round"/>
<path d="M220.817 139.315V146.196" stroke="#666666" stroke-linecap="round"/>
<path d="M146.817 149.315V156.196" stroke="#666666" stroke-linecap="round"/>
<path d="M176.817 149.315V156.196" stroke="#666666" stroke-linecap="round"/>
<path d="M206.817 149.315V156.196" stroke="#666666" stroke-linecap="round"/>
</g>
<rect x="108.559" y="3.87573" width="24.9638" height="24.9638" fill="url(#paint0_linear_101_7466)" stroke="#666666"/>
<path d="M112.237 23.4744L118.96 15.4069L121.481 19.9449L129.38 10.5327" stroke="#666666" stroke-linecap="round"/>
<path d="M166.854 99.1617V83.4618H154.435V104.083H141.312V0.978516H230.591V103.974H166.854" stroke="#3399FF" stroke-linecap="round"/>
<defs>
<linearGradient id="paint0_linear_101_7466" x1="121.04" y1="3.37573" x2="121.04" y2="29.3395" gradientUnits="userSpaceOnUse">
<stop stop-color="#FF7A4A"/>
<stop offset="1" stop-color="#FF7A4A" stop-opacity="0"/>
</linearGradient>
</defs>
</svg>
