<svg width="14" height="15" viewBox="0 0 14 15" fill="none" xmlns="http://www.w3.org/2000/svg">
<circle cx="7" cy="7.42578" r="6.65" stroke="#8A8A8A" stroke-width="0.7"/>
<mask id="path-2-inside-1_138_204" fill="white">
<path d="M10.2457 5.53284C9.8211 4.80452 9.16392 4.24016 8.3798 3.93053C7.59569 3.6209 6.73022 3.58401 5.9226 3.82577C5.11498 4.06754 4.41215 4.57392 3.92715 5.26346C3.44214 5.95301 3.20316 6.78565 3.24863 7.62745C3.29411 8.46925 3.62139 9.2713 4.17786 9.90459C4.73432 10.5379 5.48761 10.9656 6.31657 11.119C7.14554 11.2723 8.002 11.1424 8.74819 10.7501C9.49439 10.3578 10.087 9.72594 10.4306 8.95612L9.75515 8.65463C9.47918 9.27288 9.00328 9.78035 8.404 10.0954C7.80472 10.4105 7.11689 10.5148 6.45113 10.3916C5.78538 10.2685 5.1804 9.92496 4.73349 9.41636C4.28659 8.90775 4.02374 8.26362 3.98722 7.58755C3.9507 6.91149 4.14263 6.24279 4.53215 5.689C4.92166 5.13522 5.48611 4.72853 6.13473 4.53437C6.78334 4.3402 7.47841 4.36983 8.10814 4.6185C8.73787 4.86717 9.26567 5.32041 9.60664 5.90534L10.2457 5.53284Z"/>
</mask>
<path d="M10.2457 5.53284C9.8211 4.80452 9.16392 4.24016 8.3798 3.93053C7.59569 3.6209 6.73022 3.58401 5.9226 3.82577C5.11498 4.06754 4.41215 4.57392 3.92715 5.26346C3.44214 5.95301 3.20316 6.78565 3.24863 7.62745C3.29411 8.46925 3.62139 9.2713 4.17786 9.90459C4.73432 10.5379 5.48761 10.9656 6.31657 11.119C7.14554 11.2723 8.002 11.1424 8.74819 10.7501C9.49439 10.3578 10.087 9.72594 10.4306 8.95612L9.75515 8.65463C9.47918 9.27288 9.00328 9.78035 8.404 10.0954C7.80472 10.4105 7.11689 10.5148 6.45113 10.3916C5.78538 10.2685 5.1804 9.92496 4.73349 9.41636C4.28659 8.90775 4.02374 8.26362 3.98722 7.58755C3.9507 6.91149 4.14263 6.24279 4.53215 5.689C4.92166 5.13522 5.48611 4.72853 6.13473 4.53437C6.78334 4.3402 7.47841 4.36983 8.10814 4.6185C8.73787 4.86717 9.26567 5.32041 9.60664 5.90534L10.2457 5.53284Z" fill="#8A8A8A" stroke="#8A8A8A" stroke-width="2" stroke-linejoin="round" mask="url(#path-2-inside-1_138_204)"/>
</svg>
