<svg width="20" height="21" viewBox="0 0 20 21" fill="none" xmlns="http://www.w3.org/2000/svg">
<path d="M16.0434 7.04609C16.0434 5.41783 15.4095 3.85626 14.281 2.70491C13.1525 1.55356 11.622 0.906738 10.0261 0.906738C8.43016 0.906738 6.89961 1.55356 5.77114 2.70491C4.64266 3.85626 4.00869 5.41783 4.00869 7.04609C4.00869 14.2087 1 16.2551 1 16.2551H19.0521C19.0521 16.2551 16.0434 14.2087 16.0434 7.04609Z" stroke="#222222" stroke-width="0.9" stroke-linecap="round" stroke-linejoin="round"/>
<path d="M11.761 19.2715C11.5847 19.5816 11.3316 19.839 11.0271 20.018C10.7226 20.1969 10.3774 20.2911 10.026 20.2911C9.67463 20.2911 9.3294 20.1969 9.02491 20.018C8.72041 19.839 8.46734 19.5816 8.29102 19.2715" stroke="#222222" stroke-width="0.9" stroke-linecap="round" stroke-linejoin="round"/>
</svg>
