<svg width="20" height="19" viewBox="0 0 20 19" fill="none" xmlns="http://www.w3.org/2000/svg">
<path d="M6.89269 3.61715L6.55086 3.83311C6.14707 4.08821 5.64592 4.13577 5.20135 3.96117L4.37001 3.63466C3.69369 3.36904 2.92424 3.62635 2.54376 4.24538L1.70652 5.60753C1.2922 6.28161 1.47271 7.16159 2.11895 7.61812L2.56675 7.93446C2.96466 8.21556 3.20127 8.6724 3.20127 9.15959V9.84563C3.20127 10.2894 3.00477 10.7104 2.66462 10.9954L2.02286 11.5331C1.42688 12.0325 1.31126 12.9044 1.75652 13.5418L2.74674 14.9594C3.19079 15.5951 4.04616 15.7876 4.71969 15.4034L5.02023 15.2319C5.55609 14.9262 6.22446 14.9798 6.70478 15.367L7.03283 15.6314C7.38612 15.9161 7.59153 16.3455 7.59153 16.7992V17C7.59153 17.8284 8.2631 18.5 9.09153 18.5H10.7379C11.5663 18.5 12.2379 17.8284 12.2379 17V16.6447C12.2379 16.114 12.5183 15.6228 12.9753 15.353L13.6902 14.931C14.1304 14.6712 14.6725 14.6533 15.1287 14.8837L15.7138 15.179C16.3997 15.5253 17.2365 15.2971 17.6518 14.6506L18.3173 13.6145C18.6982 13.0215 18.6149 12.2432 18.117 11.7443L17.3592 10.9849C17.0785 10.7037 16.9209 10.3226 16.9209 9.92534V9.12118C16.9209 8.65555 17.1372 8.21633 17.5062 7.93238L17.8836 7.642C18.4986 7.16874 18.6512 6.30445 18.2352 5.64925L17.4292 4.37965C17.001 3.70509 16.1191 3.48463 15.4238 3.8783L15.1608 4.02718C14.6888 4.29444 14.1092 4.28602 13.6451 4.00514L12.9979 3.61342C12.5489 3.34167 12.2746 2.855 12.2746 2.33015V2C12.2746 1.17157 11.603 0.5 10.7746 0.5H9.09153C8.2631 0.5 7.59153 1.17157 7.59153 2V2.34902C7.59153 2.86362 7.32774 3.3423 6.89269 3.61715Z" stroke="#222222" stroke-linecap="round"/>
<path d="M12.6109 9.43244C12.6109 10.8577 11.4581 12.0114 10.0384 12.0114C8.61856 12.0114 7.46582 10.8577 7.46582 9.43244C7.46582 8.00716 8.61856 6.85352 10.0384 6.85352C11.4581 6.85352 12.6109 8.00716 12.6109 9.43244Z" stroke="#222222"/>
</svg>
